<svg xmlns="http://www.w3.org/2000/svg" xmlns:xlink="http://www.w3.org/1999/xlink" width="2048" zoomAndPan="magnify" viewBox="0 0 1536 863.999991" height="1152" preserveAspectRatio="xMidYMid meet" version="1.0"><defs><g/><clipPath id="e89ac91957"><rect x="0" width="1498" y="0" height="735"/></clipPath></defs><g transform="matrix(1, 0, 0, 1, 0, 25)"><g clip-path="url(#e89ac91957)"><g fill="#FFFFFF" fill-opacity="1"><g transform="translate(31.431458, 304.299559)"><g><path d="M 11.4375 0 L 11.4375 -10 L 19.21875 -10 C 30.96875 -10 38.191406 -10.976562 40.890625 -12.9375 C 43.585938 -14.894531 44.9375 -19.050781 44.9375 -25.40625 L 44.9375 -196.75 C 44.9375 -203 43.5625 -207.101562 40.8125 -209.0625 C 38.0625 -211.019531 30.863281 -212 19.21875 -212 L 11.4375 -212 L 11.4375 -222.15625 L 130.375 -222.15625 C 158.113281 -222.15625 181.640625 -211.09375 200.953125 -188.96875 C 220.273438 -166.84375 229.9375 -140.269531 229.9375 -109.25 C 229.9375 -78.863281 220.222656 -53.054688 200.796875 -31.828125 C 181.367188 -10.609375 157.894531 0 130.375 0 Z M 72.890625 -23.03125 C 72.890625 -17.414062 73.679688 -13.835938 75.265625 -12.296875 C 76.859375 -10.765625 81.359375 -10 88.765625 -10 L 121.640625 -10 C 135.929688 -10 147.894531 -12.9375 157.53125 -18.8125 C 167.164062 -24.6875 174.46875 -31.015625 179.4375 -37.796875 C 191.40625 -54.097656 197.390625 -77.914062 197.390625 -109.25 C 197.390625 -142.175781 191.773438 -166.367188 180.546875 -181.828125 C 166.046875 -201.941406 146.304688 -212 121.328125 -212 L 88.765625 -212 C 81.359375 -212 76.859375 -211.253906 75.265625 -209.765625 C 73.679688 -208.285156 72.890625 -204.6875 72.890625 -198.96875 Z M 72.890625 -23.03125 "/></g></g></g><g fill="#FFFFFF" fill-opacity="1"><g transform="translate(279.431448, 304.299559)"><g><path d="M 9.046875 0 L 9.046875 -10 C 20.585938 -10 27.707031 -10.710938 30.40625 -12.140625 C 33.101562 -13.578125 34.453125 -17.785156 34.453125 -24.765625 L 34.453125 -111.953125 C 34.453125 -119.992188 33.050781 -125.019531 30.25 -127.03125 C 27.445312 -129.050781 20.378906 -130.0625 9.046875 -130.0625 L 9.046875 -140.21875 L 54.3125 -143.71875 L 54.3125 -107.984375 C 57.382812 -117.296875 62.175781 -125.578125 68.6875 -132.828125 C 75.195312 -140.085938 83.742188 -143.71875 94.328125 -143.71875 C 101.316406 -143.71875 107.054688 -141.757812 111.546875 -137.84375 C 116.046875 -133.925781 118.296875 -129.265625 118.296875 -123.859375 C 118.296875 -119.097656 116.84375 -115.523438 113.9375 -113.140625 C 111.03125 -110.765625 107.828125 -109.578125 104.328125 -109.578125 C 100.410156 -109.578125 97.101562 -110.816406 94.40625 -113.296875 C 91.707031 -115.785156 90.359375 -119.203125 90.359375 -123.546875 C 90.359375 -126.191406 90.96875 -128.546875 92.1875 -130.609375 C 93.40625 -132.671875 94.488281 -134.070312 95.4375 -134.8125 C 96.382812 -135.5625 97.175781 -136.039062 97.8125 -136.25 C 97.394531 -136.457031 96.234375 -136.5625 94.328125 -136.5625 C 82.359375 -136.5625 72.957031 -130.609375 66.125 -118.703125 C 59.300781 -106.796875 55.890625 -92.367188 55.890625 -75.421875 L 55.890625 -25.40625 C 55.890625 -19.15625 57.1875 -15.023438 59.78125 -13.015625 C 62.375 -11.003906 69.335938 -10 80.671875 -10 L 87.5 -10 L 87.5 0 C 78.8125 -0.632812 65.046875 -0.953125 46.203125 -0.953125 C 43.554688 -0.953125 40.171875 -0.898438 36.046875 -0.796875 C 31.921875 -0.691406 27.15625 -0.53125 21.75 -0.3125 C 16.351562 -0.101562 12.117188 0 9.046875 0 Z M 9.046875 0 "/></g></g></g><g fill="#FFFFFF" fill-opacity="1"><g transform="translate(406.448088, 304.299559)"><g><path d="M 9.046875 -71.625 C 9.046875 -92.050781 15.609375 -109.515625 28.734375 -124.015625 C 41.867188 -138.523438 57.859375 -145.78125 76.703125 -145.78125 C 95.753906 -145.78125 110.226562 -139.585938 120.125 -127.203125 C 130.03125 -114.816406 134.984375 -99.726562 134.984375 -81.9375 C 134.984375 -78.65625 134.554688 -76.695312 133.703125 -76.0625 C 132.859375 -75.425781 130.582031 -75.109375 126.875 -75.109375 L 36.046875 -75.109375 C 36.046875 -52.984375 39.328125 -36.734375 45.890625 -26.359375 C 54.992188 -11.859375 67.222656 -4.609375 82.578125 -4.609375 C 84.691406 -4.609375 87.019531 -4.816406 89.5625 -5.234375 C 92.101562 -5.660156 95.96875 -6.800781 101.15625 -8.65625 C 106.34375 -10.507812 111.210938 -13.921875 115.765625 -18.890625 C 120.316406 -23.867188 123.914062 -30.273438 126.5625 -38.109375 C 127.195312 -41.179688 128.570312 -42.664062 130.6875 -42.5625 C 133.550781 -42.5625 134.984375 -41.289062 134.984375 -38.75 C 134.984375 -36.84375 133.945312 -33.742188 131.875 -29.453125 C 129.8125 -25.171875 126.820312 -20.488281 122.90625 -15.40625 C 118.988281 -10.320312 113.242188 -5.875 105.671875 -2.0625 C 98.109375 1.75 89.773438 3.65625 80.671875 3.65625 C 61.609375 3.65625 44.90625 -3.566406 30.5625 -18.015625 C 16.21875 -32.472656 9.046875 -50.34375 9.046875 -71.625 Z M 36.359375 -81.9375 L 113.546875 -81.9375 C 113.546875 -86.488281 113.144531 -91.304688 112.34375 -96.390625 C 111.550781 -101.472656 110.015625 -107.535156 107.734375 -114.578125 C 105.460938 -121.617188 101.679688 -127.359375 96.390625 -131.796875 C 91.097656 -136.242188 84.535156 -138.46875 76.703125 -138.46875 C 73.203125 -138.46875 69.570312 -137.726562 65.8125 -136.25 C 62.0625 -134.769531 57.910156 -132.226562 53.359375 -128.625 C 48.804688 -125.03125 44.941406 -119.15625 41.765625 -111 C 38.585938 -102.84375 36.785156 -93.15625 36.359375 -81.9375 Z M 36.359375 -81.9375 "/></g></g></g><g fill="#FFFFFF" fill-opacity="1"><g transform="translate(550.770743, 304.299559)"><g><path d="M 13.65625 -30.96875 C 13.65625 -49.382812 24.503906 -63.460938 46.203125 -73.203125 C 59.234375 -79.453125 79.191406 -83.367188 106.078125 -84.953125 L 106.078125 -96.859375 C 106.078125 -110.304688 102.554688 -120.601562 95.515625 -127.75 C 88.472656 -134.894531 80.507812 -138.46875 71.625 -138.46875 C 55.738281 -138.46875 43.984375 -133.492188 36.359375 -123.546875 C 42.816406 -123.335938 47.207031 -121.617188 49.53125 -118.390625 C 51.863281 -115.160156 53.03125 -111.90625 53.03125 -108.625 C 53.03125 -104.28125 51.679688 -100.703125 48.984375 -97.890625 C 46.285156 -95.085938 42.660156 -93.6875 38.109375 -93.6875 C 33.765625 -93.6875 30.164062 -95.035156 27.3125 -97.734375 C 24.457031 -100.441406 23.03125 -104.175781 23.03125 -108.9375 C 23.03125 -119.519531 27.816406 -128.304688 37.390625 -135.296875 C 46.972656 -142.285156 58.59375 -145.78125 72.25 -145.78125 C 90.039062 -145.78125 104.863281 -139.796875 116.71875 -127.828125 C 120.425781 -124.128906 123.203125 -119.894531 125.046875 -115.125 C 126.898438 -110.363281 127.929688 -106.421875 128.140625 -103.296875 C 128.359375 -100.171875 128.46875 -95.539062 128.46875 -89.40625 L 128.46875 -24.453125 C 128.46875 -23.179688 128.675781 -21.488281 129.09375 -19.375 C 129.519531 -17.257812 130.710938 -14.847656 132.671875 -12.140625 C 134.628906 -9.441406 137.25 -8.09375 140.53125 -8.09375 C 148.363281 -8.09375 152.226562 -15.03125 152.125 -28.90625 L 152.125 -47.15625 L 160.390625 -47.15625 L 160.390625 -28.90625 C 160.390625 -17.363281 157.34375 -9.34375 151.25 -4.84375 C 145.164062 -0.34375 139.316406 1.90625 133.703125 1.90625 C 126.503906 1.90625 120.628906 -0.738281 116.078125 -6.03125 C 111.523438 -11.320312 108.929688 -17.566406 108.296875 -24.765625 C 105.015625 -16.515625 99.640625 -9.710938 92.171875 -4.359375 C 84.710938 0.984375 75.90625 3.65625 65.75 3.65625 C 57.90625 3.65625 50.304688 2.675781 42.953125 0.71875 C 35.597656 -1.238281 28.875 -4.941406 22.78125 -10.390625 C 16.695312 -15.847656 13.65625 -22.707031 13.65625 -30.96875 Z M 38.75 -31.28125 C 38.75 -23.238281 41.601562 -16.625 47.3125 -11.4375 C 53.03125 -6.25 59.914062 -3.65625 67.96875 -3.65625 C 77.070312 -3.65625 85.695312 -7.171875 93.84375 -14.203125 C 102 -21.242188 106.078125 -31.703125 106.078125 -45.578125 L 106.078125 -78.125 C 82.046875 -77.28125 64.816406 -72.066406 54.390625 -62.484375 C 43.960938 -52.898438 38.75 -42.5 38.75 -31.28125 Z M 38.75 -31.28125 "/></g></g></g><g fill="#FFFFFF" fill-opacity="1"><g transform="translate(713.352042, 304.299559)"><g><path d="M 10.484375 0 L 10.484375 -10 C 22.023438 -10 29.117188 -10.710938 31.765625 -12.140625 C 34.410156 -13.578125 35.734375 -17.785156 35.734375 -24.765625 L 35.734375 -111.953125 C 35.734375 -119.992188 34.328125 -125.019531 31.515625 -127.03125 C 28.710938 -129.050781 21.703125 -130.0625 10.484375 -130.0625 L 10.484375 -140.21875 L 56.21875 -143.71875 L 56.21875 -109.578125 C 66.375 -132.335938 82.410156 -143.71875 104.328125 -143.71875 C 129.734375 -143.71875 144.1875 -133.128906 147.6875 -111.953125 C 151.382812 -120.210938 157.125 -127.570312 164.90625 -134.03125 C 172.6875 -140.488281 182.664062 -143.71875 194.84375 -143.71875 C 211.144531 -143.71875 222.523438 -139.691406 228.984375 -131.640625 C 233.753906 -126.242188 236.613281 -120.523438 237.5625 -114.484375 C 238.507812 -108.453125 238.984375 -97.601562 238.984375 -81.9375 L 238.984375 -19.84375 C 239.203125 -15.289062 241.054688 -12.507812 244.546875 -11.5 C 248.046875 -10.5 254.664062 -10 264.40625 -10 L 264.40625 0 C 242.269531 -0.632812 230.144531 -0.953125 228.03125 -0.953125 C 226.34375 -0.953125 214.0625 -0.632812 191.1875 0 L 191.1875 -10 C 202.726562 -10 209.847656 -10.710938 212.546875 -12.140625 C 215.242188 -13.578125 216.59375 -17.785156 216.59375 -24.765625 L 216.59375 -100.515625 C 216.59375 -111.523438 214.898438 -120.285156 211.515625 -126.796875 C 208.128906 -133.304688 201.78125 -136.5625 192.46875 -136.5625 C 181.238281 -136.5625 171.125 -131.847656 162.125 -122.421875 C 153.132812 -113.003906 148.640625 -100.359375 148.640625 -84.484375 L 148.640625 -24.765625 C 148.640625 -17.785156 149.988281 -13.578125 152.6875 -12.140625 C 155.382812 -10.710938 162.503906 -10 174.046875 -10 L 174.046875 0 C 151.921875 -0.632812 139.742188 -0.953125 137.515625 -0.953125 C 135.828125 -0.953125 123.601562 -0.632812 100.84375 0 L 100.84375 -10 C 112.375 -10 119.488281 -10.710938 122.1875 -12.140625 C 124.894531 -13.578125 126.25 -17.785156 126.25 -24.765625 L 126.25 -100.515625 C 126.25 -111.523438 124.550781 -120.285156 121.15625 -126.796875 C 117.769531 -133.304688 111.421875 -136.5625 102.109375 -136.5625 C 90.890625 -136.5625 80.78125 -131.847656 71.78125 -122.421875 C 62.78125 -113.003906 58.28125 -100.359375 58.28125 -84.484375 L 58.28125 -24.765625 C 58.28125 -17.785156 59.628906 -13.578125 62.328125 -12.140625 C 65.023438 -10.710938 72.09375 -10 83.53125 -10 L 83.53125 0 C 61.40625 -0.632812 49.28125 -0.953125 47.15625 -0.953125 C 45.46875 -0.953125 33.242188 -0.632812 10.484375 0 Z M 10.484375 0 "/></g></g></g><g fill="#FFFFFF" fill-opacity="1"><g transform="translate(984.060398, 304.299559)"><g/></g></g><g fill="#FFFFFF" fill-opacity="1"><g transform="translate(58.458004, 612.070965)"><g/></g></g><g fill="#FFFFFF" fill-opacity="1"><g transform="translate(166.580919, 612.070965)"><g/></g></g><g fill="#FFFFFF" fill-opacity="1"><g transform="translate(274.703835, 612.070965)"><g/></g></g><g fill="#FFFFFF" fill-opacity="1"><g transform="translate(382.82675, 612.070965)"><g/></g></g><g fill="#FFFFFF" fill-opacity="1"><g transform="translate(490.980544, 612.070965)"><g><path d="M 10.796875 0 L 10.796875 -10 L 18.578125 -10 C 30.328125 -10 37.550781 -10.976562 40.25 -12.9375 C 42.957031 -14.894531 44.3125 -19.050781 44.3125 -25.40625 L 44.3125 -196.75 C 44.3125 -203 42.929688 -207.101562 40.171875 -209.0625 C 37.421875 -211.019531 30.222656 -212 18.578125 -212 L 10.796875 -212 L 10.796875 -222.15625 C 18.421875 -221.519531 34.882812 -221.203125 60.1875 -221.203125 C 88.769531 -221.203125 106.976562 -221.519531 114.8125 -222.15625 L 114.8125 -212 L 104.015625 -212 C 94.054688 -212 86.800781 -211.363281 82.25 -210.09375 C 77.695312 -208.820312 75.050781 -207.3125 74.3125 -205.5625 C 73.570312 -203.8125 73.203125 -200.769531 73.203125 -196.4375 L 73.203125 -23.03125 C 73.203125 -17.414062 74.019531 -13.835938 75.65625 -12.296875 C 77.300781 -10.765625 81.773438 -10 89.078125 -10 L 115.765625 -10 C 126.773438 -10 136.25 -11.640625 144.1875 -14.921875 C 152.125 -18.203125 158.207031 -21.90625 162.4375 -26.03125 C 166.675781 -30.164062 170.195312 -36.125 173 -43.90625 C 175.8125 -51.6875 177.664062 -58.0625 178.5625 -63.03125 C 179.46875 -68.007812 180.34375 -74.945312 181.1875 -83.84375 L 189.28125 -83.84375 L 180.234375 0 Z M 10.796875 0 "/></g></g></g><g fill="#FFFFFF" fill-opacity="1"><g transform="translate(694.207168, 612.070965)"><g><path d="M 30.5625 -17.546875 C 16.21875 -31.679688 9.046875 -49.039062 9.046875 -69.625 C 9.046875 -90.21875 16.0625 -108.054688 30.09375 -123.140625 C 44.125 -138.234375 61.195312 -145.78125 81.3125 -145.78125 C 101 -145.78125 117.90625 -138.289062 132.03125 -123.3125 C 146.164062 -108.332031 153.234375 -90.410156 153.234375 -69.546875 C 153.234375 -49.117188 146.113281 -31.8125 131.875 -17.625 C 117.644531 -3.4375 100.679688 3.65625 80.984375 3.65625 C 61.710938 3.65625 44.90625 -3.410156 30.5625 -17.546875 Z M 36.046875 -72.25 C 36.046875 -51.1875 38.800781 -35.890625 44.3125 -26.359375 C 52.78125 -11.859375 65.113281 -4.609375 81.3125 -4.609375 C 89.351562 -4.609375 96.734375 -6.773438 103.453125 -11.109375 C 110.179688 -15.453125 115.394531 -21.273438 119.09375 -28.578125 C 123.863281 -38.109375 126.25 -52.664062 126.25 -72.25 C 126.25 -93.101562 123.390625 -108.140625 117.671875 -117.359375 C 109.203125 -131.429688 96.972656 -138.46875 80.984375 -138.46875 C 73.992188 -138.46875 67.082031 -136.640625 60.25 -132.984375 C 53.425781 -129.335938 47.953125 -123.914062 43.828125 -116.71875 C 38.640625 -107.1875 36.046875 -92.363281 36.046875 -72.25 Z M 36.046875 -72.25 "/></g></g></g><g fill="#FFFFFF" fill-opacity="1"><g transform="translate(856.788468, 612.070965)"><g><path d="M 9.046875 25.71875 C 9.046875 18.738281 11.71875 12.226562 17.0625 6.1875 C 22.414062 0.15625 29.75 -4.179688 39.0625 -6.828125 C 29.53125 -12.859375 24.765625 -22.492188 24.765625 -35.734375 C 24.765625 -45.890625 28.101562 -54.882812 34.78125 -62.71875 C 24.613281 -71.1875 19.53125 -82.359375 19.53125 -96.234375 C 19.53125 -109.046875 24.609375 -120.160156 34.765625 -129.578125 C 44.929688 -139.003906 57.425781 -143.71875 72.25 -143.71875 C 85.269531 -143.71875 96.757812 -139.800781 106.71875 -131.96875 C 117.09375 -142.125 128.578125 -147.253906 141.171875 -147.359375 C 146.785156 -147.359375 150.941406 -145.613281 153.640625 -142.125 C 156.335938 -138.632812 157.6875 -135.035156 157.6875 -131.328125 C 157.6875 -128.046875 156.65625 -125.609375 154.59375 -124.015625 C 152.53125 -122.429688 150.4375 -121.640625 148.3125 -121.640625 C 145.664062 -121.640625 143.414062 -122.507812 141.5625 -124.25 C 139.71875 -126 138.796875 -128.253906 138.796875 -131.015625 C 138.796875 -135.566406 140.539062 -138.53125 144.03125 -139.90625 C 143.394531 -140.113281 142.335938 -140.21875 140.859375 -140.21875 C 130.265625 -140.21875 120.46875 -135.984375 111.46875 -127.515625 C 120.363281 -119.253906 124.8125 -108.71875 124.8125 -95.90625 C 124.8125 -83.101562 119.726562 -71.988281 109.5625 -62.5625 C 99.40625 -53.144531 86.96875 -48.4375 72.25 -48.4375 C 60.070312 -48.4375 49.328125 -51.820312 40.015625 -58.59375 C 36.304688 -54.25 34.453125 -49.113281 34.453125 -43.1875 C 34.453125 -37.789062 36.09375 -32.972656 39.375 -28.734375 C 42.664062 -24.503906 46.796875 -22.070312 51.765625 -21.4375 C 53.242188 -21.226562 61.34375 -21.125 76.0625 -21.125 C 84.738281 -21.125 91.457031 -21.015625 96.21875 -20.796875 C 100.988281 -20.585938 106.785156 -19.769531 113.609375 -18.34375 C 120.441406 -16.914062 126.5625 -14.820312 131.96875 -12.0625 C 146.039062 -4.226562 153.128906 8.15625 153.234375 25.09375 C 153.234375 37.476562 146.113281 47.5625 131.875 55.34375 C 117.644531 63.125 100.679688 67.015625 80.984375 67.015625 C 61.085938 67.015625 44.125 63.070312 30.09375 55.1875 C 16.0625 47.300781 9.046875 37.476562 9.046875 25.71875 Z M 26.046875 25.71875 C 26.046875 34.613281 31.285156 42.472656 41.765625 49.296875 C 52.242188 56.128906 65.425781 59.546875 81.3125 59.546875 C 96.863281 59.546875 109.90625 56.179688 120.4375 49.453125 C 130.976562 42.734375 136.25 34.820312 136.25 25.71875 C 136.25 19.257812 134.394531 13.96875 130.6875 9.84375 C 126.988281 5.71875 121.351562 2.832031 113.78125 1.1875 C 106.207031 -0.445312 99.773438 -1.421875 94.484375 -1.734375 C 89.191406 -2.054688 81.675781 -2.21875 71.9375 -2.21875 L 52.71875 -2.21875 C 45.3125 -1.800781 39.015625 1.101562 33.828125 6.5 C 28.640625 11.90625 26.046875 18.3125 26.046875 25.71875 Z M 43.828125 -95.921875 C 43.828125 -69.234375 53.300781 -55.890625 72.25 -55.890625 C 81.78125 -55.890625 89.457031 -60.234375 95.28125 -68.921875 C 98.769531 -74.742188 100.515625 -83.847656 100.515625 -96.234375 C 100.515625 -122.910156 91.09375 -136.25 72.25 -136.25 C 62.726562 -136.25 55 -131.910156 49.0625 -123.234375 C 45.570312 -117.410156 43.828125 -108.304688 43.828125 -95.921875 Z M 43.828125 -95.921875 "/></g></g></g><g fill="#FFFFFF" fill-opacity="1"><g transform="translate(1019.369767, 612.070965)"><g><path d="M 10.796875 0 L 10.796875 -10 C 22.335938 -10 29.429688 -10.710938 32.078125 -12.140625 C 34.722656 -13.578125 36.046875 -17.785156 36.046875 -24.765625 L 36.046875 -112.265625 C 36.046875 -120.316406 34.695312 -125.296875 32 -127.203125 C 29.300781 -129.109375 22.65625 -130.0625 12.0625 -130.0625 L 12.0625 -140.21875 L 57.484375 -143.71875 L 57.484375 -24.453125 C 57.484375 -17.992188 58.644531 -13.96875 60.96875 -12.375 C 63.300781 -10.789062 69.765625 -10 80.359375 -10 L 80.359375 0 C 58.222656 -0.632812 46.945312 -0.953125 46.53125 -0.953125 C 43.5625 -0.953125 31.648438 -0.632812 10.796875 0 Z M 24.453125 -200.40625 C 24.453125 -204.75 26.117188 -208.691406 29.453125 -212.234375 C 32.785156 -215.773438 36.832031 -217.546875 41.59375 -217.546875 C 46.363281 -217.546875 50.441406 -215.929688 53.828125 -212.703125 C 57.222656 -209.472656 58.921875 -205.34375 58.921875 -200.3125 C 58.921875 -195.289062 57.222656 -191.164062 53.828125 -187.9375 C 50.441406 -184.707031 46.367188 -183.09375 41.609375 -183.09375 C 36.628906 -183.09375 32.523438 -184.835938 29.296875 -188.328125 C 26.066406 -191.828125 24.453125 -195.851562 24.453125 -200.40625 Z M 24.453125 -200.40625 "/></g></g></g><g fill="#FFFFFF" fill-opacity="1"><g transform="translate(1109.392811, 612.070965)"><g><path d="M 31.75 -17.859375 C 17.988281 -32.203125 11.109375 -49.671875 11.109375 -70.265625 C 11.109375 -90.859375 17.882812 -108.59375 31.4375 -123.46875 C 44.988281 -138.34375 61.71875 -145.78125 81.625 -145.78125 C 94.851562 -145.78125 106.441406 -142.628906 116.390625 -136.328125 C 126.347656 -130.023438 131.328125 -121.53125 131.328125 -110.84375 C 131.328125 -106.070312 129.921875 -102.335938 127.109375 -99.640625 C 124.304688 -96.941406 120.738281 -95.59375 116.40625 -95.59375 C 111.851562 -95.59375 108.222656 -96.992188 105.515625 -99.796875 C 102.816406 -102.609375 101.46875 -106.1875 101.46875 -110.53125 C 101.46875 -112.425781 101.785156 -114.328125 102.421875 -116.234375 C 103.054688 -118.140625 104.566406 -120.097656 106.953125 -122.109375 C 109.335938 -124.128906 112.59375 -125.296875 116.71875 -125.609375 C 108.988281 -133.546875 97.609375 -137.515625 82.578125 -137.515625 C 82.359375 -137.515625 82.144531 -137.515625 81.9375 -137.515625 C 70.925781 -137.515625 60.867188 -132.328125 51.765625 -121.953125 C 42.660156 -111.578125 38.109375 -94.535156 38.109375 -70.828125 C 38.109375 -58.441406 39.613281 -47.722656 42.625 -38.671875 C 45.644531 -29.617188 49.644531 -22.757812 54.625 -18.09375 C 59.601562 -13.4375 64.523438 -10.023438 69.390625 -7.859375 C 74.265625 -5.691406 79.082031 -4.609375 83.84375 -4.609375 C 105.125 -4.609375 119.363281 -15.988281 126.5625 -38.75 C 127.195312 -40.863281 128.570312 -41.921875 130.6875 -41.921875 C 133.550781 -41.921875 134.984375 -40.863281 134.984375 -38.75 C 134.984375 -37.6875 134.554688 -35.78125 133.703125 -33.03125 C 132.859375 -30.28125 131.113281 -26.734375 128.46875 -22.390625 C 125.820312 -18.046875 122.617188 -13.992188 118.859375 -10.234375 C 115.097656 -6.484375 109.910156 -3.226562 103.296875 -0.46875 C 96.679688 2.28125 89.242188 3.65625 80.984375 3.65625 C 61.929688 3.65625 45.519531 -3.515625 31.75 -17.859375 Z M 31.75 -17.859375 "/></g></g></g><g fill="#FFFFFF" fill-opacity="1"><g transform="translate(1253.715466, 612.070965)"><g><path d="M 7.78125 0 L 7.78125 -10 C 17.726562 -10 26.351562 -11.535156 33.65625 -14.609375 C 40.96875 -17.679688 45.707031 -20.351562 47.875 -22.625 C 50.050781 -24.90625 52.40625 -27.894531 54.9375 -31.59375 L 108.296875 -110.203125 L 48.4375 -200.71875 C 45.363281 -205.269531 41.785156 -208.285156 37.703125 -209.765625 C 33.628906 -211.253906 27.148438 -212 18.265625 -212 L 12.0625 -212 L 12.0625 -222.15625 C 24.03125 -221.519531 38.113281 -221.203125 54.3125 -221.203125 C 78.34375 -221.203125 94.171875 -221.519531 101.796875 -222.15625 L 101.796875 -212 C 95.335938 -211.78125 90.203125 -210.640625 86.390625 -208.578125 C 82.578125 -206.515625 80.671875 -204.425781 80.671875 -202.3125 C 80.671875 -201.457031 81.410156 -199.816406 82.890625 -197.390625 L 124.8125 -134.65625 L 161.96875 -189.609375 C 163.875 -192.671875 164.828125 -195.15625 164.828125 -197.0625 C 164.828125 -200.976562 163.050781 -204.390625 159.5 -207.296875 C 155.957031 -210.210938 151.015625 -211.78125 144.671875 -212 L 144.671875 -222.15625 C 153.347656 -221.519531 167.265625 -221.203125 186.421875 -221.203125 C 188.859375 -221.203125 192.0625 -221.253906 196.03125 -221.359375 C 200 -221.472656 204.628906 -221.632812 209.921875 -221.84375 C 215.222656 -222.050781 219.40625 -222.15625 222.46875 -222.15625 L 222.46875 -212 C 200.5625 -211.78125 184.84375 -204.738281 175.3125 -190.875 L 130.6875 -125.609375 L 199.296875 -21.75 C 202.578125 -16.988281 206.28125 -13.835938 210.40625 -12.296875 C 214.53125 -10.765625 221.039062 -10 229.9375 -10 L 236.140625 -10 L 236.140625 0 C 222.472656 -0.632812 208.390625 -0.953125 193.890625 -0.953125 C 169.859375 -0.953125 154.03125 -0.632812 146.40625 0 L 146.40625 -10 C 152.863281 -10.21875 158 -11.359375 161.8125 -13.421875 C 165.625 -15.484375 167.53125 -17.625 167.53125 -19.84375 C 167.53125 -20.0625 166.945312 -21.226562 165.78125 -23.34375 L 114.5 -101.15625 L 68.28125 -32.875 C 66.164062 -29.375 65.109375 -26.78125 65.109375 -25.09375 C 65.109375 -21.59375 66.828125 -18.28125 70.265625 -15.15625 C 73.703125 -12.039062 78.8125 -10.320312 85.59375 -10 L 85.59375 0 C 77.757812 -0.632812 63.835938 -0.953125 43.828125 -0.953125 C 43.191406 -0.953125 31.175781 -0.632812 7.78125 0 Z M 7.78125 0 "/></g></g></g></g></g></svg>