<svg width="1998" height="980" viewBox="0 0 1998 980" fill="none" xmlns="http://www.w3.org/2000/svg">
<mask id="mask0_40_3" style="mask-type:luminance" maskUnits="userSpaceOnUse" x="0" y="0" width="1998" height="980">
<path d="M1997.33 0H0V980H1997.33V0Z" fill="white"/>
</mask>
<g mask="url(#mask0_40_3)">
<path d="M57.1587 405.733V392.399H67.5337C83.2004 392.399 92.8306 391.097 96.4295 388.483C100.023 385.873 101.825 380.332 101.825 371.858V143.399C101.825 135.066 99.992 129.597 96.3254 126.983C92.6587 124.373 83.0597 123.066 67.5337 123.066H57.1587V109.524H215.742C252.726 109.524 284.096 124.274 309.846 153.774C335.607 183.274 348.492 218.707 348.492 260.066C348.492 300.582 335.539 334.993 309.638 363.295C283.732 391.587 252.435 405.733 215.742 405.733H57.1587ZM139.096 375.024C139.096 382.514 140.148 387.285 142.263 389.337C144.388 391.379 150.388 392.399 160.263 392.399H204.096C223.148 392.399 239.101 388.483 251.95 380.649C264.794 372.816 274.534 364.379 281.159 355.337C297.117 333.603 305.096 301.847 305.096 260.066C305.096 216.165 297.607 183.91 282.638 163.295C263.305 136.478 236.982 123.066 203.68 123.066H160.263C150.388 123.066 144.388 124.061 142.263 126.045C140.148 128.019 139.096 132.816 139.096 140.441V375.024Z" fill="#1A1054"/>
<path d="M384.638 405.733V392.4C400.023 392.4 409.518 391.452 413.117 389.545C416.711 387.629 418.513 382.019 418.513 372.712V256.462C418.513 245.743 416.643 239.04 412.909 236.358C409.169 233.665 399.747 232.316 384.638 232.316V218.775L444.992 214.108V261.754C449.086 249.337 455.476 238.295 464.159 228.629C472.836 218.952 484.231 214.108 498.346 214.108C507.664 214.108 515.315 216.722 521.304 221.941C527.304 227.165 530.304 233.379 530.304 240.587C530.304 246.936 528.367 251.702 524.492 254.879C520.617 258.045 516.346 259.629 511.679 259.629C506.455 259.629 502.044 257.978 498.45 254.67C494.851 251.353 493.054 246.795 493.054 241.004C493.054 237.478 493.867 234.337 495.492 231.587C497.117 228.837 498.56 226.972 499.825 225.983C501.086 224.983 502.143 224.347 502.992 224.066C502.435 223.79 500.888 223.65 498.346 223.65C482.388 223.65 469.851 231.587 460.742 247.462C451.643 263.337 447.096 282.577 447.096 305.17V371.858C447.096 380.191 448.825 385.702 452.284 388.379C455.742 391.061 465.023 392.4 480.138 392.4H489.242V405.733C477.659 404.889 459.304 404.462 434.179 404.462C430.648 404.462 426.138 404.535 420.638 404.67C415.138 404.811 408.784 405.025 401.575 405.316C394.377 405.597 388.731 405.733 384.638 405.733Z" fill="#1A1054"/>
<path d="M553.993 310.233C553.993 282.999 562.743 259.712 580.243 240.379C597.754 221.035 619.076 211.358 644.202 211.358C669.603 211.358 688.899 219.618 702.097 236.129C715.306 252.644 721.91 272.764 721.91 296.483C721.91 300.858 721.337 303.472 720.202 304.316C719.077 305.165 716.04 305.587 711.097 305.587H589.993C589.993 335.087 594.368 356.754 603.118 370.587C615.254 389.92 631.561 399.587 652.035 399.587C654.853 399.587 657.957 399.311 661.347 398.754C664.733 398.186 669.889 396.665 676.806 394.191C683.722 391.722 690.212 387.17 696.285 380.545C702.353 373.91 707.149 365.368 710.681 354.92C711.524 350.827 713.358 348.847 716.181 348.983C719.998 348.983 721.91 350.681 721.91 354.066C721.91 356.608 720.524 360.743 717.764 366.462C715.014 372.17 711.024 378.415 705.806 385.191C700.582 391.972 692.92 397.9 682.827 402.983C672.743 408.066 661.629 410.608 649.493 410.608C624.076 410.608 601.806 400.978 582.681 381.712C563.556 362.436 553.993 338.608 553.993 310.233ZM590.41 296.483H693.327C693.327 290.415 692.79 283.993 691.722 277.212C690.665 270.436 688.618 262.353 685.577 252.962C682.545 243.577 677.504 235.92 670.452 230.004C663.394 224.077 654.644 221.108 644.202 221.108C639.535 221.108 634.691 222.097 629.681 224.066C624.681 226.04 619.144 229.431 613.076 234.233C607.004 239.025 601.853 246.858 597.618 257.733C593.379 268.608 590.978 281.525 590.41 296.483Z" fill="#1A1054"/>
<path d="M752.569 364.441C752.569 339.889 767.033 321.118 795.965 308.129C813.34 299.795 839.95 294.577 875.799 292.462V276.587C875.799 258.66 871.101 244.931 861.715 235.4C852.325 225.874 841.705 221.108 829.861 221.108C808.679 221.108 793.007 227.743 782.84 241.004C791.45 241.285 797.304 243.577 800.403 247.879C803.512 252.186 805.069 256.525 805.069 260.9C805.069 266.691 803.267 271.462 799.674 275.212C796.075 278.952 791.241 280.816 785.174 280.816C779.382 280.816 774.58 279.019 770.778 275.42C766.97 271.811 765.069 266.832 765.069 260.483C765.069 246.374 771.45 234.66 784.215 225.337C796.991 216.019 812.486 211.358 830.694 211.358C854.413 211.358 874.179 219.337 889.986 235.295C894.929 240.228 898.632 245.874 901.09 252.233C903.559 258.582 904.934 263.837 905.215 268.004C905.507 272.17 905.653 278.347 905.653 286.525V373.129C905.653 374.827 905.929 377.082 906.486 379.9C907.054 382.722 908.642 385.936 911.257 389.545C913.866 393.144 917.361 394.941 921.736 394.941C932.179 394.941 937.33 385.691 937.194 367.191V342.858H948.215V367.191C948.215 382.582 944.153 393.275 936.028 399.275C927.913 405.275 920.116 408.275 912.632 408.275C903.033 408.275 895.2 404.749 889.132 397.691C883.059 390.639 879.601 382.311 878.757 372.712C874.382 383.712 867.215 392.785 857.257 399.92C847.309 407.045 835.569 410.608 822.028 410.608C811.569 410.608 801.434 409.301 791.632 406.691C781.825 404.082 772.861 399.144 764.736 391.879C756.621 384.603 752.569 375.457 752.569 364.441ZM786.028 364.025C786.028 374.749 789.83 383.566 797.444 390.483C805.069 397.4 814.246 400.858 824.986 400.858C837.121 400.858 848.621 396.17 859.486 386.795C870.361 377.41 875.799 363.462 875.799 344.962V301.566C843.757 302.691 820.783 309.644 806.882 322.42C792.976 335.202 786.028 349.066 786.028 364.025Z" fill="#1A1054"/>
<path d="M965.115 405.733V392.4C980.501 392.4 989.959 391.452 993.49 389.545C997.016 387.629 998.782 382.019 998.782 372.712V256.462C998.782 245.743 996.907 239.04 993.157 236.358C989.417 233.665 980.074 232.316 965.115 232.316V218.775L1026.09 214.108V259.629C1039.64 229.285 1061.02 214.108 1090.24 214.108C1124.12 214.108 1143.39 228.228 1148.05 256.462C1152.98 245.452 1160.64 235.639 1171.01 227.025C1181.39 218.415 1194.69 214.108 1210.93 214.108C1232.66 214.108 1247.83 219.478 1256.45 230.212C1262.81 237.41 1266.62 245.035 1267.89 253.087C1269.15 261.129 1269.78 275.597 1269.78 296.483V379.275C1270.07 385.347 1272.54 389.056 1277.2 390.4C1281.87 391.733 1290.69 392.4 1303.68 392.4V405.733C1274.16 404.889 1258 404.462 1255.18 404.462C1252.93 404.462 1236.55 404.889 1206.05 405.733V392.4C1221.44 392.4 1230.93 391.452 1234.53 389.545C1238.13 387.629 1239.93 382.019 1239.93 372.712V271.712C1239.93 257.035 1237.67 245.353 1233.16 236.67C1228.64 227.993 1220.18 223.65 1207.76 223.65C1192.79 223.65 1179.3 229.936 1167.3 242.504C1155.31 255.061 1149.32 271.92 1149.32 293.087V372.712C1149.32 382.019 1151.12 387.629 1154.72 389.545C1158.31 391.452 1167.81 392.4 1183.2 392.4V405.733C1153.7 404.889 1137.46 404.462 1134.49 404.462C1132.24 404.462 1115.94 404.889 1085.59 405.733V392.4C1100.97 392.4 1110.45 391.452 1114.05 389.545C1117.66 387.629 1119.47 382.019 1119.47 372.712V271.712C1119.47 257.035 1117.2 245.353 1112.68 236.67C1108.16 227.993 1099.7 223.65 1087.28 223.65C1072.32 223.65 1058.84 229.936 1046.84 242.504C1034.84 255.061 1028.84 271.92 1028.84 293.087V372.712C1028.84 382.019 1030.64 387.629 1034.24 389.545C1037.83 391.452 1047.26 392.4 1062.51 392.4V405.733C1033.01 404.889 1016.84 404.462 1014.01 404.462C1011.76 404.462 995.459 404.889 965.115 405.733Z" fill="#1A1054"/>
<path d="M669.037 816.095V802.761H679.412C695.078 802.761 704.708 801.459 708.307 798.845C711.917 796.235 713.724 790.694 713.724 782.22V553.761C713.724 545.428 711.88 539.959 708.203 537.345C704.537 534.735 694.938 533.428 679.412 533.428H669.037V519.886C679.203 520.735 701.151 521.157 734.891 521.157C773 521.157 797.276 520.735 807.724 519.886V533.428H793.328C780.047 533.428 770.375 534.277 764.307 535.97C758.235 537.667 754.708 539.678 753.724 542.011C752.735 544.345 752.245 548.402 752.245 554.178V785.386C752.245 792.876 753.333 797.647 755.516 799.699C757.708 801.74 763.672 802.761 773.412 802.761H808.995C823.672 802.761 836.307 800.574 846.891 796.199C857.474 791.824 865.584 786.886 871.224 781.386C876.875 775.876 881.568 767.928 885.307 757.553C889.057 747.178 891.526 738.678 892.724 732.053C893.932 725.417 895.099 716.167 896.224 704.303H907.016L894.953 816.095H669.037Z" fill="#1A1054"/>
<path d="M966.36 792.699C947.235 773.855 937.672 750.709 937.672 723.261C937.672 695.803 947.027 672.022 965.735 651.907C984.443 631.782 1007.2 621.72 1034.03 621.72C1060.28 621.72 1082.82 631.709 1101.65 651.678C1120.5 671.652 1129.92 695.548 1129.92 723.366C1129.92 750.605 1120.43 773.678 1101.44 792.595C1082.47 811.511 1059.85 820.97 1033.59 820.97C1007.89 820.97 985.485 811.548 966.36 792.699ZM973.672 719.761C973.672 747.845 977.344 768.241 984.693 780.949C995.985 800.282 1012.43 809.949 1034.03 809.949C1044.75 809.949 1054.59 807.063 1063.55 801.282C1072.52 795.491 1079.47 787.73 1084.4 777.991C1090.76 765.282 1093.94 745.876 1093.94 719.761C1093.94 691.959 1090.13 671.907 1082.51 659.616C1071.21 640.855 1054.91 631.47 1033.59 631.47C1024.27 631.47 1015.05 633.907 1005.94 638.782C996.844 643.647 989.547 650.876 984.047 660.47C977.131 673.178 973.672 692.944 973.672 719.761Z" fill="#1A1054"/>
<path d="M1154.45 850.387C1154.45 841.079 1158.01 832.397 1165.13 824.345C1172.27 816.303 1182.05 810.522 1194.47 806.991C1181.76 798.949 1175.41 786.105 1175.41 768.449C1175.41 754.907 1179.85 742.918 1188.76 732.47C1175.2 721.178 1168.43 706.282 1168.43 687.782C1168.43 670.699 1175.2 655.881 1188.74 643.324C1202.29 630.756 1218.95 624.47 1238.72 624.47C1256.08 624.47 1271.4 629.694 1284.68 640.137C1298.51 626.595 1313.82 619.756 1330.61 619.616C1338.1 619.616 1343.64 621.944 1347.24 626.595C1350.83 631.251 1352.63 636.048 1352.63 640.991C1352.63 645.366 1351.26 648.616 1348.51 650.741C1345.76 652.855 1342.97 653.907 1340.13 653.907C1336.6 653.907 1333.6 652.751 1331.13 650.428C1328.68 648.095 1327.45 645.09 1327.45 641.407C1327.45 635.34 1329.77 631.387 1334.43 629.553C1333.58 629.277 1332.17 629.137 1330.2 629.137C1316.07 629.137 1303.01 634.782 1291.01 646.074C1302.87 657.09 1308.8 671.137 1308.8 688.22C1308.8 705.293 1302.02 720.111 1288.47 732.678C1274.93 745.236 1258.34 751.512 1238.72 751.512C1222.48 751.512 1208.16 747.001 1195.74 737.97C1190.79 743.762 1188.32 750.611 1188.32 758.512C1188.32 765.709 1190.51 772.131 1194.88 777.782C1199.27 783.423 1204.78 786.668 1211.41 787.512C1213.37 787.793 1224.18 787.928 1243.8 787.928C1255.37 787.928 1264.33 788.074 1270.68 788.366C1277.04 788.647 1284.76 789.736 1293.86 791.637C1302.97 793.543 1311.13 796.334 1318.34 800.012C1337.1 810.459 1346.56 826.97 1346.7 849.553C1346.7 866.064 1337.2 879.512 1318.22 889.887C1299.24 900.262 1276.62 905.449 1250.36 905.449C1223.83 905.449 1201.22 900.189 1182.51 889.678C1163.8 879.163 1154.45 866.064 1154.45 850.387ZM1177.11 850.387C1177.11 862.246 1184.1 872.725 1198.07 881.824C1212.04 890.933 1229.62 895.491 1250.8 895.491C1271.54 895.491 1288.93 891.001 1302.97 882.032C1317.02 873.074 1324.05 862.522 1324.05 850.387C1324.05 841.772 1321.58 834.72 1316.63 829.22C1311.7 823.72 1304.19 819.871 1294.09 817.678C1283.99 815.501 1275.42 814.199 1268.36 813.782C1261.31 813.355 1251.29 813.137 1238.3 813.137H1212.68C1202.8 813.694 1194.41 817.564 1187.49 824.762C1180.57 831.97 1177.11 840.512 1177.11 850.387ZM1200.82 688.199C1200.82 723.782 1213.45 741.574 1238.72 741.574C1251.43 741.574 1261.66 735.782 1269.43 724.199C1274.08 716.439 1276.41 704.298 1276.41 687.782C1276.41 652.215 1263.84 634.428 1238.72 634.428C1226.02 634.428 1215.72 640.215 1207.8 651.782C1203.15 659.548 1200.82 671.689 1200.82 688.199Z" fill="#1A1054"/>
<path d="M1373.56 816.095V802.761C1388.94 802.761 1398.4 801.813 1401.93 799.907C1405.46 797.991 1407.22 792.381 1407.22 783.074V666.407C1407.22 655.673 1405.42 649.032 1401.83 646.491C1398.23 643.949 1389.37 642.678 1375.24 642.678V629.136L1435.81 624.47V783.491C1435.81 792.105 1437.35 797.47 1440.45 799.595C1443.56 801.709 1452.18 802.761 1466.31 802.761V816.095C1436.79 815.251 1421.75 814.824 1421.2 814.824C1417.24 814.824 1401.36 815.251 1373.56 816.095ZM1391.76 548.886C1391.76 543.095 1393.98 537.84 1398.43 533.116C1402.87 528.397 1408.27 526.032 1414.62 526.032C1420.98 526.032 1426.42 528.188 1430.93 532.491C1435.46 536.798 1437.72 542.303 1437.72 549.011C1437.72 555.709 1435.46 561.209 1430.93 565.511C1426.42 569.819 1420.98 571.97 1414.64 571.97C1408 571.97 1402.52 569.647 1398.22 564.991C1393.92 560.324 1391.76 554.959 1391.76 548.886Z" fill="#1A1054"/>
<path d="M1521.52 792.282C1503.17 773.157 1494 749.866 1494 722.407C1494 694.949 1503.03 671.303 1521.11 651.47C1539.17 631.636 1561.48 621.72 1588.02 621.72C1605.66 621.72 1621.11 625.923 1634.38 634.324C1647.65 642.73 1654.29 654.053 1654.29 668.303C1654.29 674.668 1652.42 679.647 1648.67 683.241C1644.93 686.84 1640.17 688.636 1634.4 688.636C1628.33 688.636 1623.49 686.772 1619.88 683.032C1616.28 679.282 1614.48 674.511 1614.48 668.72C1614.48 666.194 1614.9 663.657 1615.75 661.116C1616.6 658.574 1618.61 655.965 1621.79 653.282C1624.97 650.59 1629.32 649.032 1634.82 648.616C1624.51 638.032 1609.34 632.741 1589.29 632.741C1589 632.741 1588.72 632.741 1588.44 632.741C1573.76 632.741 1560.35 639.657 1548.21 653.491C1536.07 667.324 1530 690.048 1530 721.657C1530 738.173 1532.01 752.465 1536.02 764.532C1540.05 776.605 1545.38 785.751 1552.02 791.97C1558.66 798.178 1565.22 802.73 1571.71 805.616C1578.21 808.506 1584.63 809.949 1590.98 809.949C1619.36 809.949 1638.34 794.777 1647.94 764.428C1648.78 761.61 1650.62 760.199 1653.44 760.199C1657.26 760.199 1659.17 761.61 1659.17 764.428C1659.17 765.845 1658.6 768.386 1657.46 772.053C1656.34 775.72 1654.01 780.449 1650.48 786.241C1646.95 792.032 1642.68 797.438 1637.67 802.449C1632.65 807.449 1625.74 811.793 1616.92 815.47C1608.1 819.136 1598.18 820.97 1587.17 820.97C1561.76 820.97 1539.88 811.407 1521.52 792.282Z" fill="#1A1054"/>
<path d="M1682 816.095V802.761C1695.26 802.761 1706.76 800.714 1716.5 796.615C1726.25 792.522 1732.56 788.959 1735.45 785.928C1738.35 782.886 1741.5 778.902 1744.87 773.97L1816.02 669.157L1736.2 548.47C1732.1 542.402 1727.33 538.381 1721.89 536.407C1716.46 534.423 1707.82 533.428 1695.97 533.428H1687.7V519.886C1703.66 520.735 1722.44 521.157 1744.04 521.157C1776.08 521.157 1797.18 520.735 1807.35 519.886V533.428C1798.74 533.72 1791.89 535.24 1786.81 537.99C1781.72 540.74 1779.18 543.527 1779.18 546.345C1779.18 547.485 1780.17 549.673 1782.14 552.907L1838.04 636.553L1887.58 563.282C1890.12 559.199 1891.39 555.886 1891.39 553.345C1891.39 548.126 1889.02 543.574 1884.29 539.699C1879.56 535.813 1872.97 533.72 1864.52 533.428V519.886C1876.08 520.735 1894.64 521.157 1920.18 521.157C1923.43 521.157 1927.7 521.089 1933 520.949C1938.29 520.798 1944.46 520.584 1951.52 520.303C1958.58 520.027 1964.16 519.886 1968.25 519.886V533.428C1939.04 533.72 1918.08 543.11 1905.37 561.595L1845.87 648.615L1937.35 787.095C1941.72 793.444 1946.66 797.647 1952.16 799.699C1957.66 801.74 1966.34 802.761 1978.2 802.761H1986.47V816.095C1968.25 815.251 1949.47 814.824 1930.14 814.824C1898.1 814.824 1877 815.251 1866.83 816.095V802.761C1875.44 802.47 1882.29 800.949 1887.37 798.199C1892.45 795.449 1895 792.595 1895 789.636C1895 789.345 1894.21 787.792 1892.66 784.97L1824.29 681.22L1762.66 772.261C1759.84 776.928 1758.43 780.386 1758.43 782.636C1758.43 787.303 1760.72 791.72 1765.31 795.886C1769.89 800.042 1776.7 802.334 1785.75 802.761V816.095C1775.3 815.251 1756.74 814.824 1730.06 814.824C1729.21 814.824 1713.19 815.251 1682 816.095Z" fill="#1A1054"/>
</g>
</svg>
