<svg width="200" height="200" viewBox="0 0 200 200" fill="none" xmlns="http://www.w3.org/2000/svg">
<path d="M130.229 33.0615C113.398 25.4521 94.3162 24.4834 76.8017 30.3492C59.2872 36.215 44.6315 48.4826 35.7665 64.698C26.9015 80.9134 24.481 99.8806 28.9892 117.805C33.4974 135.73 44.6018 151.29 60.081 161.373" stroke="#201414" stroke-width="5" stroke-linecap="round" stroke-linejoin="bevel"/>
<path d="M68.7573 166.223C71.7831 167.671 74.9098 168.898 78.1128 169.893C81.4105 170.943 84.7808 171.747 88.1965 172.302C103.39 174.788 118.981 172.425 132.757 165.547C146.533 158.668 157.796 147.624 164.949 133.98C181.989 101.567 172.004 61.1318 142.555 40.1503" stroke="#201414" stroke-width="5" stroke-linecap="round" stroke-linejoin="bevel"/>
<path d="M73.9015 100.286H127.07" stroke="#201414" stroke-width="5" stroke-linecap="round" stroke-linejoin="round"/>
<path d="M120.209 93.4199L127.073 100.289L120.209 107.159" stroke="#201414" stroke-width="5" stroke-linecap="round" stroke-linejoin="round"/>
</svg>
